<svg xmlns="http://www.w3.org/2000/svg" xmlns:xlink="http://www.w3.org/1999/xlink" version="1.1" preserveAspectRatio="none" x="0px" y="0px" viewBox="0 0 100 125"><defs><g id="a"><path fill="#adbd4a" stroke="#adbd4a" d=" M 40.2 17.25 L 39.15 17.25 Q 26.75 24.3 20.25 31 7.65 43.8 7.65 59.45 7.65 69.8 13.15 75.9 18.85 82.2 27.6 82.2 34.7 82.2 39.15 77.55 43.6 73.05 43.6 65.55 43.6 58.65 39.15 54.6 35.1 50.5 29.2 50.5 28.2 50.5 27.15 50.7 L 24.95 50.9 Q 22.9 50.9 21.9 49.9 L 20.9 46.65 Q 20.9 39.55 28.8 31.65 33.25 27.15 42.2 21.05 L 40.2 17.25 M 88.95 17.25 L 87.9 17.25 Q 75.5 24.3 69 31 56.4 43.8 56.4 59.45 56.4 69.8 61.9 75.9 67.6 82.2 76.3 82.2 83.45 82.2 87.9 77.55 92.35 73.05 92.35 65.55 92.35 58.65 87.9 54.6 83.85 50.5 77.95 50.5 76.95 50.5 75.9 50.7 L 73.7 50.9 Q 71.65 50.9 70.65 49.9 L 69.6 46.65 Q 69.6 39.55 77.55 31.65 82 27.15 90.95 21.05 L 88.95 17.25 M 60.85 82.25 L 59.8 82.25 60.05 82.7 Q 60.451171875 82.4748046875 60.85 82.25 M 12.1 82.25 L 11.05 82.25 11.3 82.7 Q 11.701171875 82.4748046875 12.1 82.25 Z"/></g></defs><g transform="matrix( 1, 0, 0, 1, 0,0) "><use xlink:href="#a"/></g></svg>